<svg height="494" width="720" xmlns="http://www.w3.org/2000/svg">
<rect height="494" fill="#555" width="720"></rect>
<text fill="#7f7" font-family="Courier New" font-size="12" xml:space="preserve">
<tspan x="10" y="26">7 megabytes installed</tspan>
<tspan x="10" y="42"></tspan>
<tspan x="10" y="58">node_modules</tspan>
<tspan x="10" y="74">├── UNMET PEER DEPENDENCY express@^4.0.0</tspan>
<tspan x="10" y="90">└─┬ swaggerize-express@4.0.5 </tspan>
<tspan x="10" y="106">  ├── async@0.9.2 </tspan>
<tspan x="10" y="122">  ├─┬ caller@0.0.1 </tspan>
<tspan x="10" y="138">  │ └─┬ tape@2.3.3 </tspan>
<tspan x="10" y="154">  │   ├── deep-equal@0.1.2 </tspan>
<tspan x="10" y="170">  │   ├── defined@0.0.0 </tspan>
<tspan x="10" y="186">  │   ├── inherits@2.0.3 </tspan>
<tspan x="10" y="202">  │   ├── jsonify@0.0.0 </tspan>
<tspan x="10" y="218">  │   ├── resumer@0.0.0 </tspan>
<tspan x="10" y="234">  │   └── through@2.3.8 </tspan>
<tspan x="10" y="250">  ├── core-util-is@1.0.2 </tspan>
<tspan x="10" y="266">  ├── debuglog@1.0.1 </tspan>
<tspan x="10" y="282">  ├─┬ js-yaml@3.8.3 </tspan>
<tspan x="10" y="298">  │ ├─┬ argparse@1.0.9 </tspan>
<tspan x="10" y="314">  │ │ └── sprintf-js@1.0.3 </tspan>
<tspan x="10" y="330">  │ └── esprima@3.1.3 </tspan>
<tspan x="10" y="346">  └─┬ swaggerize-routes@1.0.11 </tspan>
<tspan x="10" y="362">    ├── caller@1.0.1 </tspan>
<tspan x="10" y="378">    ├─┬ enjoi@1.0.4 </tspan>
<tspan x="10" y="394">    │ └─┬ joi@6.10.1 </tspan>
<tspan x="10" y="410">    │   ├── hoek@2.16.3 </tspan>
<tspan x="10" y="426">    │   ├── isemail@1.2.0 </tspan>
<tspan x="10" y="442">    │   ├── moment@2.18.1 </tspan>
<tspan x="10" y="458">    │   └── topo@1.1.0 </tspan>
<tspan x="10" y="474">    └── swagger-schema-official@2.0.0-bab6bed</tspan>
</text>
</svg>
